<?xml version="1.0" standalone="no"?>
<!DOCTYPE svg PUBLIC "-//W3C//DTD SVG 20010904//EN"
 "http://www.w3.org/TR/2001/REC-SVG-20010904/DTD/svg10.dtd">
<svg version="1.0" xmlns="http://www.w3.org/2000/svg"
 width="3840.000000pt" height="3840.000000pt" viewBox="0 0 3840.000000 3840.000000"
 preserveAspectRatio="xMidYMid meet">
<metadata>
Created by potrace 1.14, written by Peter Selinger 2001-2017
</metadata>
<g transform="translate(0.000000,3840.000000) scale(0.100000,-0.100000)"
fill="#000000" stroke="none">
<path d="M22529 29996 c-2 -2 -29 -6 -60 -9 -30 -4 -73 -12 -94 -19 -46 -15
-30 30 -151 -433 -42 -159 -86 -328 -99 -375 -24 -87 -122 -469 -130 -505 -2
-11 -10 -45 -19 -75 -24 -89 -98 -374 -101 -390 -2 -8 -22 -87 -44 -175 -23
-88 -55 -214 -72 -280 -16 -66 -36 -142 -44 -170 -11 -39 -215 -840 -230 -905
-2 -8 -17 -67 -34 -130 -16 -63 -71 -277 -121 -475 -51 -198 -134 -526 -186
-730 -52 -203 -97 -381 -100 -394 -3 -14 -14 -57 -25 -97 -11 -40 -22 -81 -24
-91 -2 -10 -26 -108 -55 -218 -28 -110 -53 -211 -56 -225 -3 -14 -10 -43 -16
-65 -17 -61 -22 -78 -32 -122 -2 -10 -43 -171 -91 -358 -72 -280 -267 -1050
-281 -1105 -2 -8 -105 -420 -229 -915 -124 -495 -227 -909 -229 -920 -2 -11
-25 -103 -51 -205 -26 -102 -48 -192 -50 -200 -2 -8 -56 -226 -120 -485 -64
-258 -118 -478 -120 -488 -2 -9 -11 -43 -19 -75 -21 -77 -16 -57 -102 -407
-73 -298 -79 -324 -88 -363 -2 -9 -9 -37 -16 -62 -7 -25 -13 -52 -15 -60 -2
-8 -17 -71 -35 -140 -18 -69 -33 -132 -35 -140 -2 -8 -18 -71 -35 -140 -17
-69 -33 -136 -36 -150 -3 -14 -17 -70 -31 -125 -14 -54 -26 -104 -27 -110 -1
-5 -5 -19 -9 -30 -3 -11 -8 -31 -11 -45 -2 -14 -23 -99 -46 -190 -23 -91 -43
-172 -45 -180 -2 -8 -11 -44 -20 -80 -9 -36 -18 -72 -20 -80 -2 -8 -15 -62
-30 -120 -14 -58 -28 -116 -31 -130 -3 -14 -14 -59 -25 -100 -11 -41 -22 -86
-25 -100 -3 -14 -7 -33 -10 -42 -3 -9 -7 -25 -9 -35 -2 -10 -27 -110 -55 -223
-28 -113 -53 -212 -55 -220 -2 -8 -15 -62 -30 -120 -14 -58 -28 -112 -30 -120
-22 -96 -78 -326 -89 -365 -8 -27 -33 -126 -55 -220 -23 -93 -45 -186 -51
-205 -13 -45 -191 -767 -197 -799 -2 -14 -6 -28 -8 -31 -2 -4 -7 -20 -10 -36
-3 -16 -13 -60 -23 -99 l-18 -70 -65 1 c-60 0 -116 6 -199 20 -70 12 -271 74
-387 120 -65 26 -156 59 -203 74 -291 94 -573 250 -852 472 -333 264 -581 711
-688 1238 -11 58 -23 123 -26 145 -3 22 -7 54 -9 70 -26 169 -25 504 0 635 2
9 6 41 9 71 3 30 8 65 11 79 3 14 8 45 11 70 8 64 68 355 99 485 15 61 28 117
30 125 3 17 28 107 73 275 17 61 51 178 77 260 25 83 47 157 50 165 2 8 23 74
46 145 23 72 44 135 45 140 3 15 199 571 229 650 15 39 37 99 50 135 41 117
136 375 145 395 21 49 199 561 286 825 112 335 252 814 270 919 3 14 7 34 10
43 5 17 8 29 24 118 18 96 24 153 24 245 0 94 -12 277 -19 298 -3 7 -7 30 -10
52 -2 22 -11 69 -20 105 -8 36 -18 75 -20 87 -24 104 -142 383 -199 466 -14
21 -26 40 -26 43 0 2 -17 28 -37 57 -250 357 -582 610 -973 740 -188 63 -299
87 -520 114 -82 9 -495 10 -575 1 -498 -59 -942 -260 -1365 -618 -86 -72 -312
-298 -415 -414 -38 -43 -75 -84 -80 -90 -6 -6 -50 -57 -97 -114 -219 -261
-443 -578 -581 -823 -81 -143 -217 -421 -217 -442 0 -7 -4 -17 -9 -22 -4 -6
-27 -62 -50 -125 -23 -63 -45 -122 -48 -130 -113 -290 -226 -704 -236 -865 -6
-81 17 -127 105 -221 l38 -40 263 2 c144 1 285 5 312 9 28 4 59 8 70 10 57 8
76 25 110 97 18 40 56 145 85 233 167 521 213 654 281 803 16 35 29 66 29 68
0 3 11 29 24 57 13 29 38 84 56 122 203 447 450 804 790 1146 175 176 314 279
485 359 74 34 229 88 280 96 17 2 55 8 85 13 30 5 123 9 207 10 127 0 162 -3
213 -20 70 -24 147 -89 188 -157 l27 -47 -1 -210 c0 -115 -3 -239 -7 -275 -18
-152 -102 -521 -172 -755 -19 -66 -37 -128 -40 -137 -31 -133 -297 -931 -460
-1383 -26 -71 -53 -148 -60 -170 -7 -22 -25 -71 -40 -110 -104 -267 -371
-1047 -460 -1340 -20 -66 -40 -131 -45 -145 -33 -93 -192 -687 -214 -800 -2
-14 -18 -93 -35 -177 -16 -84 -33 -174 -36 -200 -3 -26 -7 -59 -10 -73 -4 -24
-7 -52 -21 -180 -12 -103 -4 -513 11 -591 2 -11 7 -48 10 -82 5 -68 12 -119
20 -157 2 -14 7 -41 10 -60 3 -19 15 -77 26 -128 12 -52 22 -99 23 -105 2 -7
8 -32 15 -57 138 -512 382 -939 746 -1305 83 -83 226 -210 275 -245 19 -13 37
-27 40 -30 12 -12 91 -70 160 -117 257 -172 547 -321 870 -445 103 -40 350
-126 380 -133 8 -1 63 -17 122 -34 59 -17 183 -50 275 -72 187 -46 183 -45
296 -65 10 -2 26 -5 35 -8 9 -3 34 -7 56 -11 21 -3 41 -7 45 -9 3 -2 29 -7 56
-10 28 -4 57 -9 65 -11 36 -10 241 -37 310 -41 191 -10 289 -20 298 -29 7 -7
-37 -202 -129 -570 -28 -110 -52 -211 -55 -225 -3 -14 -9 -38 -14 -55 -5 -16
-11 -41 -14 -55 -3 -14 -30 -124 -61 -245 -48 -185 -82 -321 -100 -395 -2 -8
-38 -150 -80 -315 -43 -165 -78 -304 -79 -310 -2 -5 -8 -28 -14 -50 -6 -22
-13 -51 -16 -65 -3 -14 -19 -79 -36 -145 -18 -66 -34 -128 -36 -138 -2 -10 -6
-27 -9 -37 -3 -10 -8 -27 -10 -37 -2 -10 -16 -63 -30 -118 -14 -55 -28 -109
-30 -121 -4 -17 -29 -114 -59 -229 -14 -53 -138 -553 -142 -570 -2 -11 -10
-47 -18 -80 -39 -159 -118 -491 -136 -570 -37 -170 -37 -193 -5 -240 14 -22
47 -62 73 -89 l46 -48 260 5 c280 6 313 9 393 37 111 39 135 72 168 230 2 8
24 98 50 200 25 102 48 192 50 200 2 8 20 80 40 160 20 80 38 150 39 155 1 6
5 19 9 30 3 11 8 31 11 45 3 14 35 142 71 285 37 143 69 267 70 275 5 21 108
422 157 610 22 85 44 175 49 200 5 25 16 68 24 95 8 28 37 145 65 260 29 116
92 372 141 570 49 197 91 366 93 375 1 8 8 33 14 55 6 22 13 51 16 65 3 14 32
135 66 270 33 135 76 311 96 393 l36 147 146 0 c232 1 484 12 566 25 11 2 50
6 86 10 84 8 172 21 278 40 115 20 158 29 232 47 47 11 95 22 108 24 59 12
347 99 479 145 325 114 764 317 1050 485 163 96 217 129 343 212 121 79 349
235 385 265 6 4 63 47 127 96 119 89 344 270 382 306 12 11 46 40 76 65 58 48
86 73 280 252 186 171 421 409 590 598 41 46 80 88 85 94 101 110 351 425 500
631 119 164 385 565 385 580 0 3 15 28 33 57 81 126 397 725 397 751 0 3 16
41 36 84 153 329 335 825 439 1193 68 240 233 898 251 1000 3 14 16 72 30 130
13 58 29 123 34 145 8 35 30 138 46 215 11 55 25 126 29 150 3 14 7 36 10 50
35 176 47 239 60 320 8 52 17 106 19 120 2 14 7 47 11 73 4 27 8 56 10 65 1
10 6 44 9 77 4 33 9 74 11 90 32 226 40 362 40 675 0 292 -6 384 -35 575 -16
105 -21 128 -41 205 -11 41 -22 84 -24 95 -10 43 -59 174 -92 245 -158 343
-531 648 -863 706 -56 10 -276 11 -350 2 -204 -27 -393 -99 -565 -217 -202
-138 -416 -391 -529 -624 -43 -91 -89 -213 -101 -272 -35 -171 -43 -324 -23
-437 50 -289 270 -585 649 -871 216 -163 448 -575 525 -932 26 -119 36 -186
51 -330 10 -93 10 -387 0 -500 -10 -127 -17 -196 -22 -225 -3 -14 -8 -50 -11
-80 -3 -30 -8 -58 -10 -61 -2 -3 -6 -21 -9 -40 -5 -29 -11 -62 -29 -154 -2
-11 -16 -67 -31 -125 -14 -58 -28 -115 -31 -127 -20 -97 -180 -535 -254 -699
-13 -27 -36 -78 -52 -114 -162 -356 -426 -800 -713 -1203 -106 -148 -301 -407
-350 -464 -5 -7 -15 -18 -20 -25 -62 -80 -283 -341 -366 -433 -419 -465 -754
-781 -1164 -1093 -357 -271 -801 -525 -1200 -685 -306 -122 -727 -234 -990
-261 -22 -3 -62 -7 -90 -11 -196 -23 -555 -30 -573 -10 -6 6 9 83 39 205 27
107 51 204 54 215 2 11 9 40 16 65 6 25 12 52 14 60 2 8 8 35 15 60 7 25 13
52 15 60 2 8 63 251 135 540 72 289 133 535 136 546 2 12 20 82 39 157 19 74
36 145 39 158 7 35 143 581 167 669 16 61 213 848 224 900 2 8 81 323 175 700
94 377 173 692 175 700 2 8 30 123 64 255 33 132 100 402 150 600 49 198 103
414 120 480 16 66 50 203 75 305 25 102 50 201 56 220 7 25 277 1104 335 1340
2 8 14 53 25 100 12 47 23 94 25 104 3 10 9 33 14 50 6 17 12 42 15 56 3 14
17 72 31 130 15 58 29 116 31 129 3 14 7 28 10 33 3 5 7 18 9 31 3 12 77 310
166 662 88 352 162 647 164 655 1 8 29 116 60 240 31 124 59 236 61 248 3 13
12 49 20 80 8 32 17 64 19 72 14 61 387 1563 395 1590 11 40 31 118 35 140 2
8 40 164 85 345 45 182 83 338 85 348 4 20 10 41 25 97 10 34 109 440 115 470
2 8 23 98 48 200 25 102 62 253 81 335 20 83 43 177 52 209 9 32 18 71 20 85
3 14 17 71 31 126 13 55 27 111 29 124 4 20 17 73 38 161 3 8 23 96 46 195 23
99 44 189 46 200 3 11 7 34 10 50 3 17 9 44 14 60 8 26 17 72 35 163 2 13 7
33 11 44 3 12 8 46 9 77 3 43 -1 62 -17 83 -23 33 -78 64 -140 77 -23 5 -56
13 -73 16 -30 7 -430 16 -436 11z"/>
</g>
</svg>
