<?xml version="1.0" standalone="no"?><!DOCTYPE svg PUBLIC "-//W3C//DTD SVG 1.1//EN" "http://www.w3.org/Graphics/SVG/1.1/DTD/svg11.dtd"><svg t="1632973022779" class="icon" viewBox="0 0 1024 1024" version="1.1" xmlns="http://www.w3.org/2000/svg" p-id="1036" xmlns:xlink="http://www.w3.org/1999/xlink" width="200" height="200"><defs><style type="text/css"></style></defs><path d="M869.485714 627.657143c-18.285714-58.742857-39.314286-108.114286-71.657143-188.914286C802.857143 226.514286 714.628571 54.857143 511.428571 54.857143 305.942857 54.857143 219.657143 229.942857 225.142857 438.742857c-32.457143 80.914286-53.371429 129.942857-71.657143 188.914286-38.857143 125.142857-26.285714 176.914286-16.685714 178.057143 20.571429 2.514286 80.114286-94.171429 80.114286-94.171429 0 56 28.8 129.028571 91.2 181.714286-30.171429 9.257143-97.942857 34.171429-81.828572 61.485714 13.028571 22.057143 224.228571 14.057143 285.142857 7.2 60.914286 6.857143 272.114286 14.857143 285.142858-7.2 16.114286-27.2-51.771429-52.228571-81.828572-61.485714 62.4-52.8 91.2-125.828571 91.2-181.714286 0 0 59.542857 96.685714 80.114286 94.171429 9.714286-1.257143 22.285714-53.028571-16.571429-178.057143z" p-id="1037"></path></svg>