<?xml version="1.0" standalone="no"?><!DOCTYPE svg PUBLIC "-//W3C//DTD SVG 1.1//EN" "http://www.w3.org/Graphics/SVG/1.1/DTD/svg11.dtd"><svg t="1632982051914" class="icon" viewBox="0 0 1024 1024" version="1.1" xmlns="http://www.w3.org/2000/svg" p-id="1880" xmlns:xlink="http://www.w3.org/1999/xlink" width="200" height="200"><defs><style type="text/css"></style></defs><path d="M561.75994855 288.33541115a109.72476014 109.72476014 0 1 0-0.48327005 219.4495193h0.48327005a109.72476014 109.72476014 0 0 0 0-219.4495193z" p-id="1881"></path><path d="M511.9943802 2.66666667C233.64211906 2.66666667 8 228.30878573 8 506.66104687s225.64211906 503.9943802 503.9943802 503.99438119 503.9943802-225.64211906 503.99438119-503.99438119S790.34664233 2.66666667 511.9943802 2.66666667zM272.41610497 656.76694654a24.09606577 24.09606577 0 0 1-48.18089194 0 168.58254656 168.58254656 0 0 1 90.3490058-149.39785251 120.44661005 120.44661005 0 0 1 78.2784952-211.94197763 24.09606577 24.09606577 0 0 1 0 48.18089194 72.27695672 72.27695672 0 0 0 0 144.55391442 24.09606577 24.09606577 0 0 1 24.10730438 24.11854299 24.10730437 24.10730437 0 0 1-24.10730438 24.07358756 120.44661005 120.44661005 0 0 0-120.44660906 120.44661005z m507.17497064 108.94928035a20.53335375 20.53335375 0 0 1-20.89299713-20.22990539 196.84822008 196.84822008 0 0 0-196.93812993-196.67963799h-0.49450866a196.83698147 196.83698147 0 0 0-196.96060912 196.67963799 20.53335375 20.53335375 0 0 1-41.0667075 0 238.38695902 238.38695902 0 0 1 153.97205906-222.42781181 150.80270723 150.80270723 0 1 1 168.58254558 0 239.00509533 239.00509533 0 0 1 84.12269118 54.40720654 236.55502927 236.55502927 0 0 1 69.79317385 168.0767993 20.53335375 20.53335375 0 0 1-20.11751733 20.17371136z" p-id="1882"></path></svg>